<?xml version="1.0" encoding="utf-8"?>
<!-- Generator: Adobe Illustrator 14.0.0, SVG Export Plug-In . SVG Version: 6.00 Build 43363)  -->
<!DOCTYPE svg PUBLIC "-//W3C//DTD SVG 1.0//EN" "http://www.w3.org/TR/2001/REC-SVG-20010904/DTD/svg10.dtd">
<svg version="1.0" id="Group_1_1_" xmlns="http://www.w3.org/2000/svg" xmlns:xlink="http://www.w3.org/1999/xlink" x="0px" y="0px"
	 width="2534.239px" height="793.62px" viewBox="0 0 2534.239 793.62" enable-background="new 0 0 2534.239 793.62"
	 xml:space="preserve">
<g id="Color_Fill_4">
	<g>
		<path fill-rule="evenodd" clip-rule="evenodd" fill="#FFFFFF" d="M562.229,169.02l-203.535,4.305l-203.535-4.305
			c0,0-133.076,79.562-123.961,277.818C40.104,640.546,179.64,701.48,179.64,701.48s15.683,25.817,63.477,40.078
			c48.445,14.454,113.693,13.396,115.578,13.362c1.885,0.033,67.134,1.092,115.578-13.362
			c47.793-14.261,63.477-40.078,63.477-40.078s139.536-60.935,148.441-254.643C695.306,248.581,562.229,169.02,562.229,169.02z"/>
	</g>
</g>
<g id="Color_Fill_4_1_">
	<g>
		<path fill="#838383" d="M562.229,169.02l-15.03,11.577c0,0,56.97,26.075,93.898,92.974
			c30.833,55.857,46.975,145.953,34.808,202.579c-24.25,112.869-171.688,185.909-311.586,180.764
			c-138.565-5.097-267.773-114.027-262.15-290.677c3.772-118.517,92.99-178.089,92.99-178.089l-40-19.127
			c0,0-133.076,79.562-123.961,277.818C40.104,640.546,179.64,701.48,179.64,701.48s15.683,25.817,63.477,40.078
			c48.445,14.454,113.693,13.396,115.578,13.362c-0.027-0.001-0.045-0.001-0.045-0.001h0.09c0,0-0.018,0-0.045,0.001
			c1.885,0.033,67.134,1.092,115.578-13.362c47.793-14.261,63.477-40.078,63.477-40.078s139.536-60.935,148.441-254.643
			C695.306,248.581,562.229,169.02,562.229,169.02z"/>
	</g>
</g>
<g id="Color_Fill_4_2_">
	<path fill-rule="evenodd" clip-rule="evenodd" fill="#464646" d="M562.235,169.02l-63.36,36.36c0,0,13.813,0.447,30.294-2.79
		c13.245-2.602,29.297-9.112,33.066-8.55c29.174,4.345,133.252,112.112,102.537,300c-26.941,164.8-193.015,215.358-193.015,215.358
		s6.685,0.762,13.616,0.803c6.713,0.04,13.682-0.642,13.682-0.642s-24.884,14.855-58.352,21.941
		c-35.445,7.506-78.611,8.746-82.007,8.833c-3.396-0.087-46.561-1.327-82.006-8.833c-33.468-7.086-58.352-21.941-58.352-21.941
		s6.968,0.682,13.682,0.642c6.932-0.041,13.616-0.803,13.616-0.803S79.563,658.84,52.623,494.04
		c-30.715-187.888,73.363-295.655,102.537-300c3.77-0.562,19.821,5.949,33.067,8.55c16.48,3.237,30.293,2.79,30.293,2.79
		l-63.36-36.36c0,0-133.076,79.562-123.961,277.818C40.104,640.546,179.64,701.48,179.64,701.48s15.683,25.817,63.477,40.078
		c48.491,14.468,113.816,13.394,115.581,13.362c1.765,0.031,67.09,1.105,115.581-13.362c47.794-14.261,63.477-40.078,63.477-40.078
		s139.536-60.935,148.441-254.643C695.312,248.581,562.235,169.02,562.235,169.02z"/>
</g>
<g id="Color_Fill_2">
	<g>
		<path fill="#7D7D7D" d="M585.933,86.11c-4.422-4.791-22.436-17.728-80.489-26.668c-63.883-9.838-146.522-9.504-146.522-9.504
			h-0.183c0,0-82.623-0.337-146.523,9.504c-58.053,8.94-76.067,21.877-80.49,26.668c-6.478,7.019-6.478,54.258-1.35,63.706
			c5.58,10.278,22.307,20.909,22.405,21.055c8.484,12.667,28.396,28.204,61.141,35.675c60.324,13.764,144.816,13.724,144.816,13.724
			h0.183c0,0,84.492,0.04,144.815-13.724c32.746-7.471,52.657-23.008,61.142-35.675c0.098-0.146,16.825-10.777,22.404-21.055
			C592.411,140.368,592.411,93.129,585.933,86.11z"/>
	</g>
</g>
<path fill="#464646" d="M585.933,86.11c-4.422-4.791-22.436-17.728-80.489-26.668c-63.883-9.838-146.522-9.504-146.522-9.504h-0.183
	c0,0-82.623-0.337-146.523,9.504c-58.053,8.94-76.067,21.877-80.49,26.668c-3.627,3.93-5.224,20.473-5.025,35.93
	c3.755-0.005,6.769,1.439,6.769,1.439s1.69,11.067,9.047,19.291c9.89,11.056,10.463,23.289,89.594,32.936
	c56.438,6.88,126.763,8.002,126.763,8.002l0.036-0.016c1.418-0.023,70.78-1.177,126.639-7.986
	c79.132-9.647,79.704-21.879,89.595-32.936c7.356-8.224,9.047-19.291,9.047-19.291s3.014-1.445,6.77-1.439
	C591.157,106.583,589.561,90.041,585.933,86.11z"/>
<path fill="#838383" d="M575.819,109.44c0,0-19.226,11.406-81.619,18.218c-60.066,6.559-134.201,7.521-134.201,7.521h-1.26
	c0,0-74.135-0.963-134.2-7.521c-62.394-6.813-81.62-18.218-81.62-18.218s-1.267,26.849,36.9,40.32
	c41.043,14.486,172.895,18.589,179.217,18.792c0,0,137.83-3.949,179.883-18.792C577.087,136.289,575.819,109.44,575.819,109.44z"/>
<g id="Color_Fill_5">
	<g>
		<path fill="#464646" d="M288.359,469.693c-32.806-71.301-70.754-204.517-140.76-175.641
			c-60.489,24.952-7.552,172.045,37.08,258.422c68.756,133.066,137.414,148.628,175.32,121.292
			C415.048,634.07,320.26,539.026,288.359,469.693z"/>
	</g>
</g>
<g id="Color_Fill_5_1_">
	<g>
		<path fill="#3F3F3F" d="M376.443,634.231c-2.979-8.362-8.164-7.613-8.164-7.613s-4.076,17.336-13.949,22.404
			c-41.514,21.311-105.897-40.386-154.891-140.818c-89.105-182.659-42.392-204.279-32.94-208.054
			c28.679-11.454,56.162,32.828,73.184,58.368c-23.806-46.064-52.932-80.614-92.083-64.465
			c-60.489,24.952-7.552,172.045,37.08,258.422c68.756,133.066,137.414,148.628,175.32,121.292
			C373.953,663.704,378.279,650.086,376.443,634.231z"/>
	</g>
</g>
<g id="Color_Fill_5_2_">
	<g>
		<path fill="#7D7D7D" d="M559.883,573.831c-2.052-19.946-11.253-39.655-19.121-63.126c-9.383-27.99-17.631-59.811-20.063-82.835
			c-2.536-23.991-6.11-56.111-7.525-86.45c-2.899-62.149-12.678-117.471-61.565-114.274
			c-62.311,4.075-59.396,153.234-45.439,244.964c21.502,141.313,78.818,176.359,121.441,163.229
			C553.331,627.415,563.081,604.925,559.883,573.831z"/>
	</g>
</g>
<g id="Color_Fill_5_3_">
	<g>
		<path fill="#3F3F3F" d="M530.27,613.711c-43.605,3.853-83.532-70.634-97.23-177.114
			c-24.745-192.365,24.094-197.639,33.793-198.163c29.428-1.592,36.964,48.1,44.549,76.391
			c-5.745-48.291-15.773-90.556-59.773-87.678c-62.311,4.075-59.396,153.234-45.439,244.964
			c21.502,141.313,78.818,176.359,121.441,163.229c15.69-4.834,27.003-15.645,30.188-30.539
			C550.404,609.767,539.374,612.906,530.27,613.711z"/>
	</g>
</g>
<g id="Color_Fill_6">
	<g>
		<path fill="#838383" d="M484.526,562.013c-1.44-2.79-66.006-72.831-87.998-151.976c-20.569-74.027-24.428-191.814-102.41-186.297
			c-58.386,4.13-54.215,90.232-38.17,169.935c2.871,14.258,4.231,31.912,7.572,45.255c23.43,93.59,43.161,139.003,69.56,175.007
			c7.254,9.894,20.338,27.271,27.356,33.839c3.271,3.06,7.264,5.58,11.276,8.9c8.212,6.795,23.736,16.461,26.166,16.821
			c2.431,0.36,36.08-7.559,38.33-8.638c2.25-1.08,18.626-19.437,18.626-19.437s10.365-9.27,18.284-21.854
			c9.369-14.89,16.356-30.964,16.537-33.483C489.835,587.565,485.966,564.802,484.526,562.013z"/>
	</g>
</g>
<g id="Color_Fill_6_1_">
	<g>
		<path fill-rule="evenodd" clip-rule="evenodd" fill="#464646" d="M484.526,562.013c-1.44-2.79-66.006-72.831-87.998-151.976
			c-20.569-74.027-24.428-191.814-102.41-186.297c-68.832,4.869-50.721,123.663-28.709,211.59
			c14.188,56.673,40.643,132.396,77.12,184.997c6.991,10.082,13.325,19.93,19.557,27.838c1.5,1.905,5.613,5.19,9.626,8.511
			c8.212,6.795,23.736,16.461,26.166,16.821c2.431,0.36,36.08-7.559,38.33-8.638c2.25-1.08,18.626-19.437,18.626-19.437
			s10.365-9.27,18.284-21.854c9.369-14.89,16.356-30.964,16.537-33.483C489.835,587.565,485.966,564.802,484.526,562.013z
			 M446.371,543.624c-7.231,1.746-24.394,4.662-38.822,13.358c-10.608,6.394-17.971,14.055-26.768,24.647
			c-5.459,6.573-4.739,11.21-8.816,9.806c-10.952-3.771-67.123-93.521-85.849-184.905c-32.161-156.945,3.479-172.393,15.127-174.923
			c12.759-2.771,32.761,2.588,51.645,35.047c19.784,34.007,25.139,108.669,40.701,153.721
			c22.728,65.793,43.43,86.908,51.797,104.386C449.931,534.253,452.591,542.122,446.371,543.624z"/>
	</g>
</g>
<g id="Color_Fill_6_2_">
	<g>
		<path fill="#D2D2D2" d="M473.819,561.359c-1.32-1.859-17.88-12-19.68-12.359c-1.8-0.36-26.778-0.828-33.068,1.539
			c-4.523,1.702-9.148,3.808-13.522,6.443c-4.402,2.653-8.245,5.524-11.863,8.733c-2.238,1.984-5.622,7.875-9.188,13.931
			c-4.564,7.751-8.738,14.533-9.158,15.733s-5.879,28.74-5.819,30.3c0.06,1.561,6.84,24.9,7.62,25.8c0.779,0.9,6.66,4.261,9.84,7.08
			c3.18,2.82,7.859,7.021,9.06,7.5c1.2,0.48,9.301-2.34,16.38-3.84c7.08-1.5,12-2.58,13.62-2.82c1.62-0.239,5.7-3.84,12.3-7.02
			c6.601-3.181,12.961-6.21,12.961-6.21l1.534-0.747c0,0,7.828-7,15.075-17.094c1.093-1.521,13.294-37.773,13.114-39.813
			S475.14,563.22,473.819,561.359z"/>
	</g>
</g>
<g id="Group_2_1_">
	<g id="Shape_1">
		<path fill-rule="evenodd" clip-rule="evenodd" fill="#838383" d="M453.639,572.817c0,0-5.361-3.228-11.312,6.205
			c-5.054,8.01-2.766,16.041-2.766,16.041s9-3.021,13.894-10.732C459.202,575.275,453.639,572.817,453.639,572.817z"/>
	</g>
	<g id="Shape_1_1_">
		<path fill-rule="evenodd" clip-rule="evenodd" fill="#838383" d="M433.542,580.231c-1.12-9.448-9.065-5.675-9.065-5.675
			s-8.259,3.18-6.778,12.74c1.22,7.881,9.818,9.559,9.818,9.559S434.466,588.021,433.542,580.231z"/>
	</g>
	<g id="Shape_1_2_">
		<path fill-rule="evenodd" clip-rule="evenodd" fill="#838383" d="M409.855,595.248c-8.724-3.266-13.417,4.943-13.417,4.943
			s-5.314,7.952,3.635,10.78c7.29,2.303,16.912-3.699,16.912-3.699S416.964,597.908,409.855,595.248z"/>
	</g>
	<g id="Shape_1_3_">
		<path fill-rule="evenodd" clip-rule="evenodd" fill="#838383" d="M398.913,620.141c-10.514,5.169-8.467,11.737-8.467,11.737
			s1.25,6.729,11.383,1.511c8.414-4.334,12.966-13.77,12.966-13.77S407.636,615.854,398.913,620.141z"/>
	</g>
	<g id="Shape_1_4_">
		<path fill-rule="evenodd" clip-rule="evenodd" fill="#838383" d="M421.941,626.144c0,0-9.524,3.741-14.367,11.535
			c-5.636,9.067,0.923,10.028,0.923,10.028s5.926,1.542,11.381-7.179C424.564,633.035,421.941,626.144,421.941,626.144z"/>
	</g>
	<g id="Shape_1_5_">
		<path fill-rule="evenodd" clip-rule="evenodd" fill="#838383" d="M441.917,630.923c-0.704-6.358-8.219-7.276-8.219-7.276
			s-6.513,8.299-5.577,14.694c1.058,7.235,7.871,3.212,7.871,3.212S442.714,638.12,441.917,630.923z"/>
	</g>
	<g id="Shape_1_6_">
		<path fill-rule="evenodd" clip-rule="evenodd" fill="#838383" d="M457.109,610.518c-5.413-2.091-13.743,3.364-13.743,3.364
			s-0.402,8.249,5.159,10.068c6.238,2.041,10.225-4.589,10.225-4.589S463.179,612.862,457.109,610.518z"/>
	</g>
	<g id="Shape_1_7_">
		<path fill-rule="evenodd" clip-rule="evenodd" fill="#838383" d="M466.347,592.033c0,0-0.067-6.686-8.468-2.598
			c-7.386,3.595-11.97,12.79-11.97,12.79s5.762,3.836,12.923,0.181C466.982,598.247,466.347,592.033,466.347,592.033z"/>
	</g>
</g>
<g>
	<path d="M736.71,147.018h149.902c10.578,0,19.855,0.164,27.832,0.488c7.973,0.328,17.945,1.183,29.908,2.563
		c11.963,1.385,22.377,3.338,31.25,5.859c8.869,2.525,18.227,6.268,28.076,11.23c9.846,4.967,17.902,10.864,24.17,17.7
		c6.264,6.836,11.475,15.503,15.625,26.001s6.225,22.339,6.225,35.522c0,13.348-1.873,25.311-5.615,35.889
		c-3.746,10.582-8.586,19.409-14.525,26.489c-5.943,7.08-13.715,13.226-23.316,18.433c-9.605,5.211-19.043,9.197-28.32,11.963
		c-9.277,2.77-20.428,4.967-33.447,6.592c-13.023,1.629-24.699,2.647-35.033,3.052c-10.338,0.408-22.424,0.61-36.256,0.61h-19.531
		v130.127h61.035v34.912H736.71v-34.912h59.326V181.93H736.71V147.018z M870.255,181.93h-16.602v135.986h33.936
		c68.684,0,103.027-23.193,103.027-69.58c0-10.578-1.262-19.775-3.783-27.588c-2.525-7.813-6.799-14.038-12.818-18.677
		c-6.023-4.639-11.924-8.381-17.699-11.23c-5.779-2.846-14.039-4.883-24.781-6.104s-19.816-1.953-27.221-2.197
		c-7.408-0.244-17.865-0.446-31.373-0.61C871.8,181.93,870.903,181.93,870.255,181.93z"/>
	<path d="M1167.13,252.487v234.62h47.852v27.344h-147.461v-27.344h47.119V279.831h-47.607v-27.344H1167.13z M1099.991,170.456
		c0-10.09,3.541-18.715,10.621-25.879c7.08-7.16,15.582-10.742,25.512-10.742c9.766,0,18.27,3.624,25.514,10.864
		c7.24,7.244,10.863,15.831,10.863,25.757c0,9.766-3.623,18.188-10.863,25.269c-7.244,7.08-15.748,10.62-25.514,10.62
		c-9.93,0-18.432-3.54-25.512-10.62S1099.991,180.221,1099.991,170.456z"/>
	<path d="M1234.513,388.473c0-18.879,2.846-36.781,8.545-53.711c5.695-16.926,13.916-32.104,24.658-45.532
		s24.658-24.086,41.748-31.982c17.09-7.893,36.213-11.841,57.373-11.841c11.879,0,23.762,1.751,35.645,5.249
		c11.879,3.502,22.949,8.587,33.203,15.259c10.254,6.676,18.594,15.667,25.025,26.978c6.428,11.314,9.643,23.968,9.643,37.964
		c0,9.766-3.379,18.799-10.131,27.1c-6.756,8.301-16.156,12.451-28.199,12.451c-10.582,0-19.492-3.132-26.732-9.399
		c-7.244-6.264-10.865-14.606-10.865-25.024c0-10.578,3.742-18.799,11.23-24.658c7.484-5.859,16.273-8.789,26.367-8.789
		c-5.371-8.625-12.98-15.705-22.826-21.24c-9.85-5.531-21.119-8.301-33.814-8.301c-14.16,0-26.855,3.136-38.086,9.399
		c-11.23,6.268-20.184,14.568-26.855,24.902c-6.676,10.338-11.76,21.771-15.258,34.302c-3.502,12.535-5.25,25.475-5.25,38.818
		c0,31.415,7.24,56.114,21.729,74.096c14.484,17.986,34.584,26.979,60.303,26.979c9.926,0,19.49-2.076,28.688-6.227
		c9.193-4.15,16.926-9.314,23.193-15.502c6.264-6.184,11.512-12.41,15.746-18.678c4.23-6.264,7.16-12,8.789-17.211l27.588,9.033
		c-6.188,26.695-19.287,48.057-39.307,64.086c-20.02,16.033-45.25,24.049-75.684,24.049c-17.418,0-33.855-3.137-49.316-9.4
		c-15.465-6.264-28.893-15.014-40.283-26.244c-11.395-11.23-20.385-25.227-26.977-41.992
		C1237.81,426.644,1234.513,408.333,1234.513,388.473z"/>
	<path d="M1776.505,481.003c9.438,0,17.902-1.709,25.391-5.127l7.08,32.959c-7.977,4.559-15.098,7.445-21.361,8.666
		c-6.268,1.221-13.715,1.832-22.34,1.832c-17.418,0-32.348-4.559-44.799-13.672s-23.805-22.377-34.059-39.795l-49.072-84.473
		l-40.527,31.006v74.707h41.504v27.344h-143.311v-27.344h49.316V177.047h-49.316v-30.029h101.807v228.027l102.051-95.215h-45.898
		v-27.344h146.484v27.344h-46.631l-84.473,81.055c4.883,6.836,11.311,16.686,19.287,29.541c7.973,12.86,14.973,23.846,20.996,32.959
		c6.02,9.117,12.818,18.432,20.387,27.953s15.381,16.846,23.438,21.973S1768.528,481.003,1776.505,481.003z"/>
	<path d="M1922.745,147.018v340.088h52.49v27.344h-159.424v-27.344h54.443V177.047h-54.443v-30.029H1922.745z"/>
	<path d="M1997.696,386.764c0-14.648,1.709-28.889,5.127-42.725c3.418-13.832,8.625-26.691,15.625-38.574
		c6.996-11.879,15.381-22.297,25.146-31.25c9.766-8.949,21.4-15.991,34.912-21.118c13.508-5.127,28.076-7.69,43.701-7.69
		c16.602,0,32.063,2.93,46.387,8.789c14.32,5.859,26.855,14.366,37.598,25.513c10.742,11.15,19.287,25.311,25.635,42.48
		c6.348,17.174,9.682,36.419,10.01,57.739h-188.232v1.953c0,14,1.504,27.02,4.518,39.063c3.01,12.047,7.525,22.869,13.549,32.471
		c6.02,9.605,14.039,17.174,24.049,22.705c10.01,5.535,21.521,8.301,34.545,8.301c16.926,0,32.838-5.287,47.73-15.869
		c14.893-10.578,24.939-25.471,30.15-44.678l28.564,9.033c-6.348,26.855-19.287,48.26-38.818,64.209
		c-19.531,15.953-43.785,23.926-72.754,23.926c-19.859,0-38.006-3.785-54.443-11.354c-16.441-7.568-29.906-17.699-40.404-30.395
		s-18.555-26.979-24.17-42.848S1997.696,404.019,1997.696,386.764z M2055.313,353.561h132.813
		c-0.652-23.598-7.121-42.683-19.408-57.251c-12.291-14.564-27.307-21.851-45.045-21.851c-17.906,0-33.287,7.286-46.143,21.851
		C2064.671,310.878,2057.267,329.963,2055.313,353.561z"/>
	<path d="M2385.88,521.042c-12.695,0-25.023-1.221-36.986-3.662s-23.277-6.143-33.936-11.109
		c-10.662-4.963-19.207-11.879-25.635-20.752c-6.432-8.869-9.645-19-9.645-30.395c0-10.578,3.334-19.287,10.01-26.123
		c6.672-6.836,14.484-10.254,23.438-10.254c9.113,0,16.885,2.525,23.316,7.568c6.428,5.047,9.643,12.371,9.643,21.973
		c0,8.301-2.441,15.178-7.324,20.629c-4.883,5.455-10.418,8.18-16.602,8.18c6.184,4.559,14.607,8.342,25.27,11.352
		c10.658,3.014,21.361,4.518,32.104,4.518c12.531,0,23.721-1.221,33.57-3.662c9.846-2.441,18.268-6.996,25.268-13.672
		c6.996-6.672,10.498-15.217,10.498-25.635c0-7.813-2.402-14.771-7.201-20.875c-4.803-6.104-11.109-10.943-18.922-14.525
		c-7.813-3.578-16.723-7.119-26.732-10.621c-10.01-3.498-20.227-6.591-30.641-9.277c-10.418-2.686-20.629-6.184-30.639-10.498
		c-10.01-4.311-18.922-9.071-26.734-14.282c-7.813-5.207-14.121-12.085-18.92-20.63c-4.803-8.545-7.203-18.349-7.203-29.419
		c0-11.066,2.4-20.996,7.203-29.785c4.799-8.789,10.863-15.907,18.188-21.362c7.324-5.451,15.705-10.01,25.146-13.672
		c9.438-3.662,18.471-6.184,27.1-7.568c8.625-1.381,16.926-2.075,24.902-2.075c11.719,0,23.561,1.305,35.523,3.906
		c11.963,2.605,23.109,6.31,33.447,11.108c10.334,4.803,18.756,11.108,25.268,18.921c6.508,7.813,9.766,16.441,9.766,25.879
		c0,10.906-3.135,19.737-9.398,26.489c-6.268,6.756-13.635,10.132-22.096,10.132c-9.277,0-17.174-2.808-23.682-8.423
		c-6.512-5.615-9.766-13.306-9.766-23.071c0-4.719,1.18-9.033,3.541-12.939c2.357-3.906,4.516-6.63,6.469-8.179
		c1.953-1.545,4.799-3.54,8.545-5.981c-16.113-7.813-34.344-11.719-54.688-11.719c-16.766,0-30.926,3.662-42.48,10.986
		c-11.559,7.324-17.334,17.662-17.334,31.006c0,6.348,2.4,12.005,7.203,16.968c4.799,4.967,11.146,8.953,19.043,11.963
		c7.893,3.014,16.846,6.188,26.855,9.521c10.01,3.338,20.301,6.432,30.883,9.277c10.578,2.85,20.875,6.676,30.885,11.475
		c10.01,4.803,18.959,10.052,26.855,15.747c7.893,5.699,14.24,13.184,19.043,22.461c4.799,9.277,7.201,19.775,7.201,31.494
		c0,11.883-2.158,22.461-6.469,31.738c-4.314,9.277-9.973,16.807-16.969,22.582c-7,5.779-15.342,10.541-25.023,14.283
		c-9.686,3.742-19.531,6.348-29.541,7.813S2396.946,521.042,2385.88,521.042z"/>
</g>
<g>
	<path d="M736.203,711.951v-127.92h16.186v114.075h55.965v13.845H736.203z"/>
	<path d="M837.602,597.682c-3.12,0-5.752-0.976-7.897-2.926c-2.145-1.949-3.217-4.418-3.217-7.41c0-3.119,1.072-5.621,3.217-7.507
		c2.146-1.883,4.777-2.828,7.897-2.828s5.753,0.945,7.897,2.828c2.146,1.886,3.218,4.388,3.218,7.507
		c0,2.992-1.072,5.461-3.218,7.41C843.354,596.706,840.722,597.682,837.602,597.682z M829.412,711.951v-94.77h15.99v94.77H829.412z"
		/>
	<path d="M897.854,711.951l-34.125-94.77h16.575l17.94,53.819c1.429,4.681,2.891,9.36,4.387,14.04
		c1.493,4.68,2.956,9.296,4.388,13.845h0.78c1.429-4.549,2.857-9.165,4.29-13.845c1.429-4.68,2.857-9.359,4.29-14.04l17.939-53.819
		h15.795l-33.54,94.77H897.854z"/>
	<path d="M976.633,597.682c-3.12,0-5.752-0.976-7.897-2.926c-2.145-1.949-3.217-4.418-3.217-7.41c0-3.119,1.072-5.621,3.217-7.507
		c2.146-1.883,4.777-2.828,7.897-2.828s5.753,0.945,7.897,2.828c2.146,1.886,3.218,4.388,3.218,7.507
		c0,2.992-1.072,5.461-3.218,7.41C982.386,596.706,979.753,597.682,976.633,597.682z M968.443,711.951v-94.77h15.99v94.77H968.443z"
		/>
	<path d="M1016.411,711.951v-94.77h13.26l1.365,13.649h0.585c4.549-4.549,9.326-8.352,14.332-11.407
		c5.003-3.053,10.823-4.583,17.453-4.583c10.009,0,17.321,3.12,21.938,9.36c4.612,6.24,6.922,15.472,6.922,27.69v60.06h-15.989
		v-57.915c0-8.97-1.433-15.436-4.29-19.402c-2.861-3.964-7.41-5.947-13.65-5.947c-4.942,0-9.296,1.236-13.065,3.705
		c-3.771,2.471-8.062,6.111-12.869,10.92v68.64H1016.411z"/>
	<path d="M1155.055,755.631c-5.85,0-11.182-0.555-15.989-1.657c-4.812-1.106-8.94-2.764-12.383-4.973
		c-3.446-2.212-6.112-4.875-7.995-7.995c-1.886-3.12-2.827-6.761-2.827-10.92c0-4.031,1.233-7.867,3.705-11.505
		c2.468-3.641,5.85-6.953,10.14-9.945v-0.779c-2.34-1.43-4.323-3.413-5.947-5.948c-1.627-2.534-2.438-5.685-2.438-9.457
		c0-4.028,1.103-7.538,3.314-10.53c2.209-2.988,4.549-5.329,7.021-7.02v-0.78c-3.12-2.599-5.948-6.075-8.482-10.433
		c-2.535-4.354-3.803-9.391-3.803-15.112c0-5.198,0.941-9.878,2.827-14.04c1.883-4.159,4.452-7.702,7.703-10.628
		c3.247-2.925,7.05-5.167,11.407-6.727c4.354-1.561,8.937-2.341,13.747-2.341c2.6,0,5.037,0.229,7.313,0.683
		c2.273,0.457,4.32,1.009,6.143,1.658h32.955v12.284h-19.5c2.209,2.212,4.062,5.007,5.558,8.386
		c1.493,3.382,2.242,7.087,2.242,11.114c0,5.07-0.911,9.653-2.729,13.748c-1.822,4.095-4.29,7.541-7.41,10.335
		c-3.12,2.797-6.795,4.973-11.018,6.532c-4.226,1.561-8.744,2.34-13.553,2.34c-2.34,0-4.747-0.292-7.215-0.877
		c-2.471-0.585-4.811-1.396-7.02-2.438c-1.691,1.432-3.12,3.022-4.29,4.777s-1.755,3.934-1.755,6.532c0,2.992,1.17,5.46,3.51,7.41
		s6.758,2.925,13.26,2.925h18.33c11.048,0,19.335,1.789,24.862,5.362c5.524,3.577,8.288,9.327,8.288,17.258
		c0,4.418-1.106,8.61-3.315,12.577c-2.212,3.965-5.396,7.44-9.555,10.433c-4.162,2.989-9.199,5.363-15.113,7.118
		C1169.125,754.754,1162.465,755.631,1155.055,755.631z M1157.395,744.517c4.55,0,8.678-0.555,12.383-1.658
		c3.705-1.105,6.855-2.535,9.458-4.29c2.599-1.755,4.612-3.802,6.045-6.143c1.429-2.34,2.145-4.747,2.145-7.215
		c0-4.421-1.627-7.477-4.875-9.165c-3.251-1.69-7.995-2.535-14.234-2.535h-16.381c-1.821,0-3.802-0.097-5.947-0.292
		c-2.145-0.195-4.26-0.618-6.337-1.268c-3.383,2.468-5.851,5.07-7.41,7.8c-1.561,2.73-2.34,5.46-2.34,8.19
		c0,5.069,2.438,9.098,7.313,12.09C1142.088,743.021,1148.815,744.517,1157.395,744.517z M1155.055,671.196
		c2.73,0,5.296-0.519,7.703-1.561c2.403-1.038,4.549-2.534,6.435-4.484c1.883-1.95,3.346-4.32,4.388-7.118
		c1.039-2.794,1.56-5.947,1.56-9.457c0-7.02-1.949-12.446-5.85-16.282c-3.9-3.833-8.647-5.753-14.235-5.753
		c-5.591,0-10.335,1.92-14.234,5.753c-3.9,3.836-5.851,9.263-5.851,16.282c0,3.51,0.519,6.663,1.561,9.457
		c1.039,2.798,2.501,5.168,4.387,7.118c1.884,1.95,4.028,3.446,6.436,4.484C1149.757,670.678,1152.325,671.196,1155.055,671.196z"/>
	<path d="M1261.914,711.951v-127.92h31.98c19.759,0,34.773,5.46,45.045,16.38c10.268,10.92,15.405,26.587,15.405,46.995
		c0,10.14-1.302,19.207-3.9,27.202c-2.603,7.995-6.436,14.756-11.505,20.28c-5.07,5.527-11.311,9.75-18.72,12.675
		c-7.41,2.925-15.927,4.388-25.546,4.388H1261.914z M1278.1,698.691h14.625c14.947,0,26.16-4.485,33.637-13.455
		c7.475-8.97,11.213-21.578,11.213-37.83c0-16.249-3.738-28.665-11.213-37.245c-7.477-8.58-18.689-12.87-33.637-12.87H1278.1
		V698.691z"/>
	<path d="M1417.132,714.291c-5.85,0-11.407-1.105-16.672-3.314c-5.266-2.209-9.915-5.427-13.942-9.653
		c-4.031-4.223-7.249-9.424-9.653-15.6c-2.406-6.173-3.607-13.162-3.607-20.963c0-7.928,1.201-14.981,3.607-21.157
		c2.404-6.173,5.622-11.407,9.653-15.697c4.027-4.29,8.677-7.538,13.942-9.75c5.265-2.209,10.822-3.315,16.672-3.315
		c5.851,0,11.408,1.106,16.673,3.315c5.265,2.212,9.911,5.46,13.942,9.75c4.028,4.29,7.245,9.524,9.652,15.697
		c2.404,6.176,3.607,13.229,3.607,21.157c0,7.801-1.203,14.79-3.607,20.963c-2.407,6.176-5.624,11.377-9.652,15.6
		c-4.031,4.227-8.678,7.444-13.942,9.653S1422.982,714.291,1417.132,714.291z M1417.132,701.031c4.028,0,7.733-0.878,11.115-2.633
		c3.379-1.755,6.271-4.223,8.678-7.41c2.403-3.184,4.256-6.986,5.558-11.407c1.298-4.418,1.949-9.36,1.949-14.82
		s-0.651-10.432-1.949-14.917c-1.302-4.485-3.154-8.352-5.558-11.603c-2.407-3.248-5.299-5.753-8.678-7.508
		c-3.382-1.755-7.087-2.632-11.115-2.632c-4.03,0-7.735,0.877-11.114,2.632c-3.383,1.755-6.274,4.26-8.678,7.508
		c-2.407,3.251-4.26,7.117-5.558,11.603c-1.301,4.485-1.95,9.457-1.95,14.917s0.649,10.402,1.95,14.82
		c1.298,4.421,3.15,8.224,5.558,11.407c2.403,3.188,5.295,5.655,8.678,7.41C1409.396,700.153,1413.102,701.031,1417.132,701.031z"/>
	<path d="M1523.405,714.291c-6.239,0-12.09-1.105-17.55-3.314s-10.174-5.427-14.138-9.653c-3.967-4.223-7.087-9.424-9.359-15.6
		c-2.276-6.173-3.413-13.162-3.413-20.963c0-7.928,1.234-14.981,3.705-21.157c2.468-6.173,5.783-11.407,9.945-15.697
		c4.159-4.29,9-7.538,14.527-9.75c5.524-2.209,11.341-3.315,17.452-3.315c6.24,0,11.569,1.106,15.99,3.315
		c4.418,2.212,8.318,4.811,11.7,7.8l-8.19,10.53c-2.729-2.468-5.624-4.485-8.677-6.045c-3.057-1.561-6.469-2.34-10.238-2.34
		c-4.29,0-8.257,0.877-11.895,2.632c-3.641,1.755-6.761,4.26-9.36,7.508c-2.602,3.251-4.649,7.117-6.143,11.603
		c-1.496,4.485-2.242,9.457-2.242,14.917s0.713,10.402,2.146,14.82c1.429,4.421,3.412,8.224,5.947,11.407
		c2.535,3.188,5.621,5.655,9.263,7.41c3.638,1.755,7.604,2.633,11.895,2.633c4.418,0,8.482-0.941,12.188-2.827
		c3.705-1.884,7.051-4.126,10.043-6.728l7.02,10.725c-4.29,3.772-9.037,6.728-14.235,8.872
		C1534.585,713.219,1529.125,714.291,1523.405,714.291z"/>
	<path d="M1602.574,714.291c-10.14,0-17.52-3.12-22.132-9.359c-4.616-6.24-6.923-15.47-6.923-27.69v-60.06h16.185v57.914
		c0,8.971,1.396,15.439,4.193,19.403c2.794,3.967,7.313,5.947,13.552,5.947c4.939,0,9.293-1.268,13.065-3.803
		c3.769-2.535,7.928-6.597,12.479-12.188v-67.274h15.99v94.77h-13.26l-1.365-14.82h-0.585c-4.421,5.201-9.067,9.36-13.942,12.48
		S1609.204,714.291,1602.574,714.291z"/>
	<path d="M1680.963,711.951v-94.77h13.26l1.365,13.649h0.585c4.159-4.549,8.678-8.352,13.553-11.407
		c4.875-3.053,10.17-4.583,15.892-4.583c7.279,0,12.968,1.594,17.063,4.778c4.096,3.187,7.118,7.638,9.068,13.357
		c4.938-5.46,9.911-9.848,14.917-13.163c5.003-3.314,10.433-4.973,16.282-4.973c9.75,0,16.996,3.12,21.743,9.36
		c4.744,6.24,7.117,15.472,7.117,27.69v60.06h-15.99v-57.915c0-8.97-1.432-15.436-4.29-19.402c-2.86-3.964-7.281-5.947-13.26-5.947
		c-7.151,0-15.082,4.875-23.79,14.625v68.64h-15.99v-57.915c0-8.97-1.432-15.436-4.29-19.402c-2.86-3.964-7.346-5.947-13.455-5.947
		c-7.15,0-15.082,4.875-23.789,14.625v68.64H1680.963z"/>
	<path d="M1881.032,714.291c-6.371,0-12.318-1.14-17.843-3.412c-5.527-2.273-10.335-5.524-14.43-9.75
		c-4.096-4.224-7.313-9.391-9.652-15.503c-2.341-6.108-3.511-13.064-3.511-20.865c0-7.8,1.201-14.786,3.607-20.962
		c2.404-6.173,5.588-11.407,9.556-15.697c3.964-4.29,8.482-7.572,13.552-9.848c5.07-2.273,10.335-3.413,15.796-3.413
		c5.978,0,11.34,1.042,16.087,3.12c4.744,2.081,8.708,5.07,11.896,8.971c3.184,3.899,5.621,8.579,7.313,14.039
		c1.688,5.461,2.534,11.572,2.534,18.33c0,1.691-0.033,3.349-0.097,4.973c-0.067,1.627-0.229,3.022-0.488,4.192h-63.96
		c0.649,10.141,3.803,18.169,9.458,24.083c5.655,5.917,13.031,8.872,22.133,8.872c4.549,0,8.741-0.683,12.577-2.047
		c3.833-1.365,7.508-3.15,11.018-5.363l5.655,10.53c-4.162,2.603-8.775,4.875-13.846,6.825
		C1893.317,713.316,1887.531,714.291,1881.032,714.291z M1851.197,656.961h50.699c0-9.619-2.047-16.932-6.142-21.938
		c-4.096-5.003-9.848-7.507-17.258-7.507c-3.382,0-6.6,0.651-9.652,1.949c-3.057,1.302-5.819,3.218-8.288,5.753
		c-2.471,2.535-4.519,5.624-6.143,9.263C1852.787,648.122,1851.715,652.281,1851.197,656.961z"/>
	<path d="M1939.335,711.951v-94.77h13.26l1.365,13.649h0.585c4.549-4.549,9.326-8.352,14.332-11.407
		c5.003-3.053,10.823-4.583,17.453-4.583c10.009,0,17.321,3.12,21.938,9.36c4.612,6.24,6.922,15.472,6.922,27.69v60.06H1999.2
		v-57.915c0-8.97-1.433-15.436-4.29-19.402c-2.861-3.964-7.41-5.947-13.65-5.947c-4.942,0-9.296,1.236-13.065,3.705
		c-3.771,2.471-8.062,6.111-12.869,10.92v68.64H1939.335z"/>
	<path d="M2075.834,714.291c-5.07,0-9.33-0.78-12.772-2.34c-3.446-1.56-6.24-3.705-8.385-6.435c-2.146-2.73-3.675-6.046-4.583-9.945
		c-0.911-3.9-1.365-8.19-1.365-12.87v-52.455h-14.04v-12.09l14.82-0.975l1.95-26.521h13.455v26.521h25.545v13.064h-25.545v52.65
		c0,5.85,1.072,10.368,3.217,13.552c2.146,3.188,5.948,4.778,11.408,4.778c1.688,0,3.51-0.26,5.46-0.78
		c1.95-0.519,3.705-1.104,5.265-1.755l3.12,12.09c-2.602,0.911-5.43,1.722-8.482,2.438
		C2081.846,713.932,2078.823,714.291,2075.834,714.291z"/>
	<path d="M2129.654,714.291c-7.931,0-14.527-2.34-19.793-7.02c-5.265-4.681-7.897-11.311-7.897-19.891
		c0-10.398,4.613-18.36,13.846-23.887c9.229-5.524,23.984-9.391,44.265-11.603c0-2.989-0.293-5.914-0.878-8.775
		c-0.585-2.858-1.593-5.393-3.022-7.605c-1.432-2.209-3.412-3.997-5.947-5.362s-5.752-2.047-9.652-2.047
		c-5.46,0-10.597,1.042-15.405,3.119c-4.811,2.081-9.101,4.422-12.87,7.021l-6.239-11.115c4.418-2.857,9.813-5.621,16.185-8.287
		c6.368-2.663,13.388-3.998,21.061-3.998c11.568,0,19.953,3.544,25.154,10.628c5.198,7.087,7.8,16.545,7.8,28.372v58.11h-13.26
		l-1.365-11.31h-0.585c-4.552,3.771-9.427,6.989-14.625,9.652C2141.224,712.957,2135.632,714.291,2129.654,714.291z
		 M2134.334,701.421c4.549,0,8.839-1.072,12.87-3.217c4.028-2.146,8.318-5.296,12.87-9.458v-26.325
		c-7.931,1.042-14.595,2.276-19.987,3.705c-5.396,1.433-9.75,3.12-13.065,5.07c-3.314,1.95-5.722,4.192-7.215,6.728
		c-1.496,2.535-2.242,5.299-2.242,8.287c0,5.46,1.624,9.36,4.875,11.7C2125.688,700.251,2129.654,701.421,2134.334,701.421z"/>
	<path d="M2233.2,714.291c-5.07,0-9.33-0.78-12.772-2.34c-3.446-1.56-6.24-3.705-8.385-6.435c-2.146-2.73-3.675-6.046-4.583-9.945
		c-0.911-3.9-1.365-8.19-1.365-12.87v-52.455h-14.04v-12.09l14.82-0.975l1.95-26.521h13.455v26.521h25.545v13.064h-25.545v52.65
		c0,5.85,1.072,10.368,3.217,13.552c2.146,3.188,5.948,4.778,11.408,4.778c1.688,0,3.51-0.26,5.46-0.78
		c1.95-0.519,3.705-1.104,5.265-1.755l3.12,12.09c-2.602,0.911-5.43,1.722-8.482,2.438
		C2239.212,713.932,2236.189,714.291,2233.2,714.291z"/>
	<path d="M2277.464,597.682c-3.12,0-5.752-0.976-7.897-2.926c-2.145-1.949-3.217-4.418-3.217-7.41c0-3.119,1.072-5.621,3.217-7.507
		c2.146-1.883,4.777-2.828,7.897-2.828s5.753,0.945,7.897,2.828c2.146,1.886,3.218,4.388,3.218,7.507
		c0,2.992-1.072,5.461-3.218,7.41C2283.217,596.706,2280.584,597.682,2277.464,597.682z M2269.274,711.951v-94.77h15.99v94.77
		H2269.274z"/>
	<path d="M2354.097,714.291c-5.85,0-11.407-1.105-16.672-3.314c-5.266-2.209-9.915-5.427-13.942-9.653
		c-4.031-4.223-7.249-9.424-9.653-15.6c-2.406-6.173-3.607-13.162-3.607-20.963c0-7.928,1.201-14.981,3.607-21.157
		c2.404-6.173,5.622-11.407,9.653-15.697c4.027-4.29,8.677-7.538,13.942-9.75c5.265-2.209,10.822-3.315,16.672-3.315
		c5.851,0,11.408,1.106,16.673,3.315c5.265,2.212,9.911,5.46,13.942,9.75c4.028,4.29,7.245,9.524,9.652,15.697
		c2.404,6.176,3.607,13.229,3.607,21.157c0,7.801-1.203,14.79-3.607,20.963c-2.407,6.176-5.624,11.377-9.652,15.6
		c-4.031,4.227-8.678,7.444-13.942,9.653S2359.947,714.291,2354.097,714.291z M2354.097,701.031c4.028,0,7.733-0.878,11.115-2.633
		c3.379-1.755,6.271-4.223,8.678-7.41c2.403-3.184,4.256-6.986,5.558-11.407c1.298-4.418,1.949-9.36,1.949-14.82
		s-0.651-10.432-1.949-14.917c-1.302-4.485-3.154-8.352-5.558-11.603c-2.407-3.248-5.299-5.753-8.678-7.508
		c-3.382-1.755-7.087-2.632-11.115-2.632c-4.03,0-7.735,0.877-11.114,2.632c-3.383,1.755-6.274,4.26-8.678,7.508
		c-2.407,3.251-4.26,7.117-5.558,11.603c-1.301,4.485-1.95,9.457-1.95,14.917s0.649,10.402,1.95,14.82
		c1.298,4.421,3.15,8.224,5.558,11.407c2.403,3.188,5.295,5.655,8.678,7.41C2346.361,700.153,2350.066,701.031,2354.097,701.031z"/>
	<path d="M2422.931,711.951v-94.77h13.26l1.365,13.649h0.585c4.549-4.549,9.326-8.352,14.332-11.407
		c5.003-3.053,10.823-4.583,17.453-4.583c10.009,0,17.321,3.12,21.938,9.36c4.612,6.24,6.922,15.472,6.922,27.69v60.06h-15.989
		v-57.915c0-8.97-1.433-15.436-4.29-19.402c-2.861-3.964-7.41-5.947-13.65-5.947c-4.942,0-9.296,1.236-13.065,3.705
		c-3.771,2.471-8.062,6.111-12.869,10.92v68.64H2422.931z"/>
</g>
</svg>
